<svg xmlns="http://www.w3.org/2000/svg" width="15" height="15" viewBox="0 0 15 15">
    <path fill="#4598DB" fill-rule="evenodd" d="M14.638 2.405a1.163 1.163 0 0 0-.81-.311h-1.151v-.785c0-.36-.141-.668-.423-.925A1.459 1.459 0 0 0 11.237 0h-.576c-.396 0-.734.128-1.016.385a1.206 1.206 0 0 0-.423.924v.785H5.767v-.785c0-.36-.141-.668-.423-.924A1.459 1.459 0 0 0 4.327 0h-.575c-.396 0-.735.128-1.017.385a1.206 1.206 0 0 0-.423.924v.785H1.16c-.312 0-.581.104-.81.31a.964.964 0 0 0-.341.737v10.47c0 .283.114.528.342.735.228.208.497.311.81.311h12.667c.312 0 .582-.103.81-.31a.964.964 0 0 0 .342-.737V3.14a.964.964 0 0 0-.342-.735zM3.751 13.61h-2.59v-2.355h2.59v2.355zm0-2.879h-2.59V8.114h2.59v2.617zm0-3.14h-2.59V5.234h2.59V7.59zM3.55 3.847a.24.24 0 0 1-.085-.184V1.31a.24.24 0 0 1 .085-.184.29.29 0 0 1 .203-.078h.575a.29.29 0 0 1 .203.078.24.24 0 0 1 .085.184v2.355a.241.241 0 0 1-.085.184.29.29 0 0 1-.203.078h-.575a.29.29 0 0 1-.203-.078zm3.657 9.762H4.327v-2.355h2.88v2.355zm0-2.879H4.327V8.114h2.88v2.617zm0-3.14H4.327V5.234h2.88V7.59zm3.455 6.02H7.782v-2.356h2.88v2.355zm0-2.88H7.782V8.114h2.88v2.617zm0-3.14H7.782V5.234h2.88V7.59zm-.202-3.743a.24.24 0 0 1-.085-.184V1.31a.24.24 0 0 1 .085-.184.29.29 0 0 1 .202-.078h.576a.29.29 0 0 1 .203.078.24.24 0 0 1 .085.184v2.355a.24.24 0 0 1-.085.184.29.29 0 0 1-.203.078h-.576a.29.29 0 0 1-.202-.078zm3.37 9.762h-2.592v-2.355h2.591v2.355zm0-2.879h-2.592V8.114h2.591v2.617zm0-3.14h-2.592V5.234h2.591V7.59z"/>
</svg>
