<svg xmlns="http://www.w3.org/2000/svg" width="15" height="15" viewBox="0 0 15 15">
    <path fill="#8DD582" fill-rule="evenodd" d="M7.5 0C3.34 0 0 3.34 0 7.5S3.34 15 7.5 15 15 11.66 15 7.5 11.66 0 7.5 0zm4.33 5.148l-5.455 5.659a.31.31 0 0 1-.239.102c-.102 0-.204-.034-.238-.102l-2.66-2.864-.068-.068a.368.368 0 0 1-.102-.239c0-.068.034-.17.102-.238l.478-.478a.33.33 0 0 1 .477 0l.034.035 1.875 2.01c.068.07.17.07.239 0l4.568-4.738h.034a.33.33 0 0 1 .477 0l.478.478c.136.102.136.306 0 .443z"/>
</svg>
