<svg xmlns="http://www.w3.org/2000/svg" width="15" height="11" viewBox="0 0 15 11">
    <g fill="#3498DB" fill-rule="evenodd">
        <path d="M12.48 7.114l-.736 2.325-.1.316-.328-.934c.756-1.055-.058-1.105-.199-1.105-.158 0-.972.05-.216 1.105l-.328.934-.1-.316-.735-2.325s-.32.207-.884.47a2.032 2.032 0 0 0-.52-.28C7.202 6.874 6.52 6.43 6.52 6.43l-.876 2.765-.12.374-.391-1.109c.901-1.254-.067-1.316-.237-1.316-.183 0-1.154.062-.253 1.316l-.39 1.11-.12-.375-.877-2.765s-.681.444-1.815.876a1.805 1.805 0 0 0-.52.278C.118 7.85.05 9.44.05 9.44l-.017.316v.96H14.992c-.004-1.62.062-2.484-.989-2.866-.955-.366-1.524-.735-1.524-.735z"/>
        <path d="M10.59 1.815a1.804 1.804 0 0 0-.436.224 2.528 2.528 0 0 0-.449.37 1.779 1.779 0 0 0-.482.847c-.07.261-.054.536.005.826.016.087.037.17.07.258-.162-.017-.349.079-.17.706.129.46.25.59.34.594.083.548.507 1.241 1.196 1.482.283.1.594.1.88 0 .682-.245 1.118-.938 1.201-1.482.091-.009.212-.138.34-.594.18-.627-.012-.723-.17-.706.03-.088.054-.175.07-.258.27-1.628-.53-1.682-.53-1.682s-.134-.253-.482-.448a1.638 1.638 0 0 0-.993-.208c-.133 0-.266.025-.39.07zM2.537 3.962c.154.548.3.697.407.71.1.652.603 1.478 1.425 1.765.336.12.71.12 1.046-.004.81-.291 1.33-1.117 1.429-1.765.108-.009.253-.162.407-.71.212-.748-.013-.86-.204-.84.038-.103.063-.207.083-.307C7.454.876 6.5.81 6.5.81S6.34.507 5.925.274a1.922 1.922 0 0 0-1.18-.25 1.711 1.711 0 0 0-.469.092 2.015 2.015 0 0 0-.515.266c-.19.12-.373.27-.531.44-.253.258-.478.59-.573 1.01-.083.31-.062.635.004.984.017.103.046.203.083.307-.195-.017-.42.091-.208.839z"/>
    </g>
</svg>
