<svg xmlns="http://www.w3.org/2000/svg" width="15" height="9" viewBox="0 0 15 9">
    <g fill="#4598DB" fill-rule="evenodd">
        <path d="M14.725 6.897a10.735 10.735 0 0 0-1.91-1.225.057.057 0 0 1-.034-.052V4.323a.602.602 0 0 0 .271-.503V2.478c0-.667-.543-1.21-1.21-1.21h-.29c-.666 0-1.21.54-1.21 1.21V3.82c0 .21.109.395.272.503V5.62c0 .009-.003.015-.003.021.256.176.522.37.781.584.306.25.478.62.478 1.015v1.08h3.096V7.4a.662.662 0 0 0-.24-.503z"/>
        <path d="M11.04 6.647a12.466 12.466 0 0 0-2.247-1.441.072.072 0 0 1-.04-.065V3.62a.71.71 0 0 0 .318-.593V1.45c0-.784-.636-1.423-1.423-1.423h-.337C6.529.027 5.89.663 5.89 1.45v1.577a.71.71 0 0 0 .318.593V5.14a.072.072 0 0 1-.04.065c-.216.105-1.269.639-2.247 1.441a.765.765 0 0 0-.278.593v1.08h7.679V7.24a.758.758 0 0 0-.28-.593z"/>
        <path d="M4.349 5.617V4.32a.602.602 0 0 0 .271-.503V2.475c0-.667-.54-1.21-1.21-1.21h-.29c-.666 0-1.21.543-1.21 1.21v1.342c0 .21.109.395.272.503v1.297a.057.057 0 0 1-.034.052c-.182.09-1.08.543-1.91 1.225A.649.649 0 0 0 0 7.397v.92h3.096v-1.08c0-.395.176-.766.478-1.016.26-.213.525-.41.78-.583a.057.057 0 0 1-.005-.021z"/>
    </g>
</svg>
