<svg xmlns="http://www.w3.org/2000/svg" width="15" height="15" viewBox="0 0 15 15">
    <g fill="none" fill-rule="evenodd">
        <path fill="#4598DB" d="M7.5 0a.997.997 0 0 0-.982.86H0v.937h.879v9.258H0v.937h4.53L3.43 15h.938l.456-1.25h5.35L10.63 15h.938l-1.098-3.008H15v-.937h-.879V1.797H15V.859H8.482A.997.997 0 0 0 7.5 0zM5.168 12.812l.299-.82h4.066l.3.82H5.168zm8.016-1.757H1.816V1.797h11.368v9.258z"/>
        <path fill="#4598DB" d="M1 1h13v11H1z"/>
        <circle cx="5" cy="4" r="1" fill="#4C4A49"/>
        <path fill="#4C4A49" d="M7 4h4v1H7z"/>
        <circle cx="5" cy="7" r="1" fill="#4C4A49"/>
        <path fill="#4C4A49" d="M7 6h4v1H7z"/>
        <circle cx="5" cy="9" r="1" fill="#4C4A49"/>
        <path fill="#4C4A49" d="M7 8h4v1H7z"/>
    </g>
</svg>
