<svg xmlns="http://www.w3.org/2000/svg" width="8" height="15" viewBox="0 0 8 15">
    <path fill="#4598DB" fill-rule="evenodd" d="M8 9.724c0-1.655-.873-2.665-3.037-3.437-1.545-.589-2.182-.975-2.182-1.581 0-.516.382-1.03 1.565-1.03.66 0 1.2.108 1.635.24.262.081.545.048.783-.088.238-.135.412-.364.48-.632l.017-.066a1.045 1.045 0 0 0-.732-1.266 7.646 7.646 0 0 0-1.675-.246V.9c0-.497-.399-.9-.89-.9a.896.896 0 0 0-.892.9v.846C1.127 2.132 0 3.4 0 5.018 0 6.8 1.327 7.72 3.272 8.382c1.346.46 1.928.9 1.928 1.598 0 .736-.71 1.141-1.746 1.141a6.09 6.09 0 0 1-2.032-.365.964.964 0 0 0-.785.061.986.986 0 0 0-.487.626l-.017.068c-.15.59.185 1.197.761 1.379.613.193 1.344.33 2.087.363v.847c0 .497.399.9.89.9a.896.896 0 0 0 .892-.9v-.976C6.853 12.757 8 11.36 8 9.724z"/>
</svg>
