<svg xmlns="http://www.w3.org/2000/svg" xmlns:xlink="http://www.w3.org/1999/xlink" width="100" height="100" viewBox="0 0 100 100">
    <defs>
        <linearGradient id="b" x1="50%" x2="50%" y1="11.026%" y2="100%">
            <stop offset="0%" stop-color="#C7C7C7"/>
            <stop offset="100%" stop-color="#E5E5E5"/>
        </linearGradient>
        <circle id="a" cx="50" cy="50" r="50"/>
    </defs>
    <g fill="none" fill-rule="evenodd">
        <mask id="c" fill="#fff">
            <use xlink:href="#a"/>
        </mask>
        <use fill="url(#b)" xlink:href="#a"/>
        <g fill="#EFEFEF" mask="url(#c)">
            <path d="M80.61 79.473l-4.301 13.561-.584 1.84-1.92-5.448c4.423-6.151-.34-6.442-1.166-6.442-.923 0-5.687.291-1.264 6.442l-1.92 5.449-.583-1.84-4.301-13.562s-1.871 1.21-5.176 2.736c-.827-.63-1.823-1.162-3.038-1.622-6.634-2.519-10.62-5.11-10.62-5.11l-5.128 16.129-.704 2.18-2.285-6.467c5.274-7.313-.389-7.677-1.385-7.677-1.07 0-6.756.364-1.482 7.677l-2.285 6.466-.704-2.18-5.128-16.128s-3.986 2.591-10.62 5.11c-1.215.436-2.211.969-3.038 1.622-4.709 1.55-5.103 10.825-5.103 10.825l-.097 1.84v5.595h87.535c-.025-9.445.364-14.482-5.784-16.71-5.59-2.13-8.919-4.286-8.919-4.286z"/>
            <path d="M69.649 48.361a10.57 10.57 0 0 0-2.552 1.308 14.78 14.78 0 0 0-2.624 2.155c-1.24 1.26-2.358 2.906-2.82 4.94-.412 1.526-.315 3.124.025 4.82.097.508.219.992.413 1.501-.948-.097-2.041.46-.996 4.117.753 2.688 1.458 3.439 1.993 3.463.486 3.196 2.964 7.24 6.998 8.645a7.83 7.83 0 0 0 5.152 0c3.986-1.429 6.538-5.473 7.024-8.645.534-.049 1.239-.8 1.992-3.463 1.045-3.657-.073-4.214-.996-4.117.17-.509.316-1.017.413-1.501 1.58-9.493-3.11-9.808-3.11-9.808s-.778-1.477-2.82-2.616c-1.36-.799-3.28-1.428-5.808-1.21-.777 0-1.555.145-2.284.411zM22.346 60.79c.899 3.196 1.75 4.068 2.381 4.14.583 3.803 3.524 8.622 8.336 10.293a9.018 9.018 0 0 0 6.124-.025c4.739-1.695 7.776-6.514 8.36-10.292.631-.048 1.482-.944 2.381-4.14 1.24-4.36-.073-5.014-1.19-4.892.218-.606.364-1.211.485-1.793C51.12 42.796 45.53 42.41 45.53 42.41s-.923-1.768-3.353-3.124c-1.628-.969-3.913-1.72-6.902-1.453-.972.048-1.895.242-2.746.533-1.094.363-2.114.92-3.013 1.55a15.65 15.65 0 0 0-3.111 2.567c-1.482 1.501-2.795 3.438-3.354 5.884-.486 1.817-.364 3.705.025 5.74a9.82 9.82 0 0 0 .486 1.792c-1.142-.097-2.455.533-1.215 4.892z"/>
        </g>
    </g>
</svg>
