<svg xmlns="http://www.w3.org/2000/svg" xmlns:xlink="http://www.w3.org/1999/xlink" width="100" height="100" viewBox="0 0 100 100">
    <defs>
        <linearGradient id="b" x1="50%" x2="50%" y1="11.026%" y2="100%">
            <stop offset="0%" stop-color="#C7C7C7"/>
            <stop offset="100%" stop-color="#E5E5E5"/>
        </linearGradient>
        <circle id="a" cx="50" cy="50" r="50"/>
    </defs>
    <g fill="none" fill-rule="evenodd">
        <mask id="c" fill="#fff">
            <use xlink:href="#a"/>
        </mask>
        <use fill="url(#b)" xlink:href="#a"/>
        <g fill-rule="nonzero" mask="url(#c)">
            <path fill="#EFEFEF" d="M78.887 37.721v62.444a.734.734 0 0 1-.733.734H21.846a.734.734 0 0 1-.733-.734v-71.33c0-.406.328-.734.733-.734H69.54l9.347 9.62z"/>
            <path fill="#EFEFEF" d="M78.887 37.721l-9.347-9.62v8.886c0 .406.328.734.733.734h8.614z"/>
            <path fill="#D5D5D5" d="M63.857 102h-42.01a1.836 1.836 0 0 1-1.834-1.835V45.493a1.1 1.1 0 1 1 2.2 0v54.305h41.644a1.1 1.1 0 0 1 0 2.202z"/>
            <path fill="#D2D2D2" d="M78.154 102h-6.6a1.1 1.1 0 0 1 0-2.202h6.233v-61.63l-8.712-8.966H22.213v8.219a1.1 1.1 0 1 1-2.2 0v-8.586c0-1.012.823-1.835 1.833-1.835H69.54c.297 0 .582.12.789.333l9.347 9.62c.2.206.312.482.312.768v62.444A1.836 1.836 0 0 1 78.154 102z"/>
            <path fill="#D5D5D5" d="M55.091 41.497h-26.5a.732.732 0 0 1-.732-.732v-6.087c0-.405.328-.733.732-.733h26.5c.404 0 .732.328.732.733v6.087a.732.732 0 0 1-.732.732zM31.506 57.675a1.1 1.1 0 0 1-.724-.273l-2.346-2.054a1.102 1.102 0 0 1-.104-1.554 1.099 1.099 0 0 1 1.552-.103l1.46 1.278 4.858-6.4a1.1 1.1 0 1 1 1.752 1.333l-5.572 7.338a1.1 1.1 0 0 1-.876.435zM70.84 50.336H43.142a1.1 1.1 0 0 1 0-2.202H70.84a1.1 1.1 0 0 1 0 2.202zM61.125 54.005H43.142a1.1 1.1 0 0 1 0-2.201h17.983a1.1 1.1 0 0 1 0 2.201zM65.23 57.675H43.143a1.1 1.1 0 0 1 0-2.202H65.23a1.1 1.1 0 0 1 0 2.202zM31.506 72.646a1.1 1.1 0 0 1-.724-.272l-2.346-2.055a1.102 1.102 0 0 1-.104-1.554 1.1 1.1 0 0 1 1.552-.103l1.46 1.278 4.858-6.4a1.1 1.1 0 1 1 1.752 1.333l-5.572 7.338a1.1 1.1 0 0 1-.876.435zM70.84 65.307H43.142a1.1 1.1 0 0 1 0-2.201H70.84a1.1 1.1 0 0 1 0 2.201zM61.125 68.977H43.142a1.1 1.1 0 0 1 0-2.202h17.983a1.1 1.1 0 0 1 0 2.202zM65.23 72.646H43.143a1.1 1.1 0 0 1 0-2.202H65.23a1.1 1.1 0 0 1 0 2.202zM70.84 80.279H43.142a1.1 1.1 0 0 1 0-2.202H70.84a1.1 1.1 0 0 1 0 2.202zM61.125 83.948H43.142a1.1 1.1 0 0 1 0-2.202h17.983a1.1 1.1 0 0 1 0 2.202zM65.23 87.617H43.143a1.1 1.1 0 0 1 0-2.202H65.23a1.1 1.1 0 0 1 0 2.202zM35.76 86.516h-5.868a.732.732 0 0 1-.732-.732V79.91c0-.404.328-.732.732-.732h5.868c.404 0 .731.328.731.732v5.874a.732.732 0 0 1-.731.732z"/>
        </g>
    </g>
</svg>
