<svg xmlns="http://www.w3.org/2000/svg" width="20" height="20" viewBox="0 0 20 20">
    <g fill="#B3B3B3" fill-rule="evenodd">
        <path d="M10 0C4.486 0 0 4.486 0 10s4.486 10 10 10 10-4.486 10-10S15.514 0 10 0zm0 18.182c-4.512 0-8.182-3.67-8.182-8.182 0-4.511 3.67-8.182 8.182-8.182 4.512 0 8.182 3.67 8.182 8.182 0 4.512-3.67 8.182-8.182 8.182z"/>
        <path d="M10 4.242a1.213 1.213 0 1 0 1.212 1.213c0-.669-.544-1.213-1.212-1.213zM10 8.485a.91.91 0 0 0-.91.909v5.454a.91.91 0 0 0 1.82 0V9.394a.91.91 0 0 0-.91-.91z"/>
    </g>
</svg>
